<svg width="1372" height="695" viewBox="0 0 1372 695" fill="none" xmlns="http://www.w3.org/2000/svg">
<path d="M1372 691.5C1372 601.544 1357.26 505.97 1322.78 422.862C1288.31 339.754 1237.78 264.24 1174.08 200.632C1110.37 137.024 1034.75 86.567 951.521 52.1425C868.291 17.718 779.087 -3.93208e-06 689 0C598.913 3.93208e-06 509.708 17.7181 426.479 52.1425C343.25 86.567 267.626 137.024 203.925 200.632C140.224 264.24 89.6933 339.754 55.2186 422.862C20.7439 505.97 0.499992 604.544 0.5 694.5L689 685L1372 691.5Z" fill="#BFCAE0"/>
<path d="M1263.5 690.5C1263.5 540.52 1197.37 384.683 1091.22 278.631C985.077 172.579 841.113 113 691 113C540.888 113 396.923 172.579 290.778 278.631C184.632 384.683 121 542.52 121 692.5L691.5 684H976.5L1132.5 690.5H1263.5Z" fill="#8193B8"/>
<path d="M1135 688.5C1135 570.081 1088.96 448.512 1005.22 364.777C921.488 281.042 807.919 234 689.5 234C571.081 234 457.512 281.042 373.777 364.777C290.042 448.512 241 570.081 241 688.5H466H689.5H1135Z" fill="#697A9B"/>
</svg>
